# xmcd
#
# Track frame offsets:
#	150
#	3529
#	4976
#	11671
#	23104
#	31980
#	33340
#	42403
#	47943
#	54065
#	63009
#	79789
#	87470
#	94957
#	101530
#	113956
#	119408
#	129026
#	136925
#	141429
#	156255
#	174728
#	179163
#	180979
#	191076
#	199178
#	203757
#	205473
#	210760
#	214323
#	216893
#	234765
#	251280
#	259216
#	264098
#	277903
#	280335
#
# Disc length: 3770 seconds
#
# Revision: 1
# Processed by: cddbd v1.5.2PL0 Copyright (c) Steve Scherf et al.
# Submitted via: EZCDAudioConverter 2.1.7.1
#
DISCID=100eb825
DTITLE=Monty Python - Life Of Brian
DYEAR=1900
DGENRE=
TTITLE0=Introduction
TTITLE1=Brian Song
TTITLE2=The Wise Men At The Manger
TTITLE3=Brian Song (Part 2)
TTITLE4=Sermon On The Mount (Big Nose)
TTITLE5=Stone Salesman
TTITLE6=Stoning
TTITLE7=Ex-Leper
TTITLE8=You Mean You Were Raped? (Nortius Maximus)
TTITLE9=Link To Revolutionaries In The Amphitheatre (Loretta)
TTITLE10=Revolutionaries In The Amphitheatre (Loretta)
TTITLE11=Romans Go Home
TTITLE12=What Have The Romans Ever Done For Us?
TTITLE13=Ben
TTITLE14=Brian Before Pilate (Throw Him To The Floor)
TTITLE15=Prophets
TTITLE16=Beard Salesman
TTITLE17=Brian's Prophecy
TTITLE18=The Hermit
TTITLE19=He's Not The Messiah
TTITLE20=He's A Very Naughty Boy
TTITLE21=Pilate Sentences Brian
TTITLE22=Nisus Wettus
TTITLE23=Pilate With The Crowd (Welease Wodger)
TTITLE24=Nisus Wettus With The Gaolers
TTITLE25=Release Brian
TTITLE26=Not So Bad Once You're Up
TTITLE27=Revs Salute Brian
TTITLE28=Cheeky Is Released
TTITLE29=Mandy To Her Son
TTITLE30=Look On The Bright Side Of Life (All Things Dull And Ugly)
TTITLE31=Otto Sketch
TTITLE32=Otto Song
TTITLE33=Otto Song [Demo] (Python Sings)
TTITLE34=Brian Song [Alternate Version]
TTITLE35=Radio Ad - Record Shop
TTITLE36=Radio Ad - Twice As Good
EXTD=
EXTT0=
EXTT1=
EXTT2=
EXTT3=
EXTT4=
EXTT5=
EXTT6=
EXTT7=
EXTT8=
EXTT9=
EXTT10=
EXTT11=
EXTT12=
EXTT13=
EXTT14=
EXTT15=
EXTT16=
EXTT17=
EXTT18=
EXTT19=
EXTT20=
EXTT21=
EXTT22=
EXTT23=
EXTT24=
EXTT25=
EXTT26=
EXTT27=
EXTT28=
EXTT29=
EXTT30=
EXTT31=
EXTT32=
EXTT33=
EXTT34=
EXTT35=
EXTT36=
PLAYORDER=
